<?xml version="1.0" encoding="utf-8"?>
<!-- Generator: Adobe Illustrator 26.0.0, SVG Export Plug-In . SVG Version: 6.00 Build 0)  -->
<svg version="1.1" id="Calque_1" xmlns="http://www.w3.org/2000/svg" xmlns:xlink="http://www.w3.org/1999/xlink" x="0px" y="0px"
	 viewBox="0 0 43 48" style="enable-background:new 0 0 43 48;" xml:space="preserve">
<style type="text/css">
	.st0{fill:#DAE2E8;}
</style>
<g>
	<circle class="st0" cx="27.5" cy="15.6" r="2.8"/>
	<path class="st0" d="M32.9,22.8c6.3-9,4.5-20.3,4.4-20.8c0-0.1-0.1-0.2-0.1-0.2c-0.1-0.1-0.2-0.1-0.3-0.1
		c-0.5,0.1-11.7,2.1-18.1,11.2l-6.3,9c-1.5,2.2-1.9,4.8-1.3,7.1c2-1.5,4.8-1.7,6.9-0.2c2.1,1.5,3,4.2,2.2,6.6
		c2.4-0.2,4.8-1.5,6.3-3.6L32.9,22.8z M24.9,19.3c-2-1.4-2.5-4.2-1.1-6.2S28,10.6,30,12s2.5,4.2,1.1,6.2
		C29.7,20.2,26.9,20.7,24.9,19.3z"/>
	<path class="st0" d="M16.6,31.1c-1.4-1-3.3-0.6-4.3,0.8c-0.4,0.6-1.3,3.2-2.6,8.5c0,0.1,0,0.3,0.1,0.4c0.1,0.1,0.3,0.1,0.4,0
		c4.6-2.9,6.7-4.7,7.1-5.3C18.3,34.1,18,32.1,16.6,31.1z"/>
	<path class="st0" d="M27.1,37.5l-0.3-1.8c-2,1.7-4.6,2.6-7.1,2.6l-1,1.5c-0.3,0.4-0.4,0.8-0.3,1.3l0.7,3.8c0.1,0.5,0.3,0.8,0.7,1.1
		c0.2,0.1,0.4,0.2,0.6,0.3c0.7,0.1,1.4-0.1,1.8-0.7l4.8-6.8C27.1,38.4,27.2,37.9,27.1,37.5z"/>
	<path class="st0" d="M8.9,23.1l-1.8,0.3c-0.4,0.1-0.8,0.3-1.1,0.7l-4.8,6.8c-0.4,0.6-0.4,1.3,0,1.9c0.1,0.2,0.3,0.4,0.5,0.5
		c0.4,0.3,0.8,0.4,1.3,0.3l3.8-0.7c0.4-0.1,0.8-0.3,1.1-0.7l1-1.5C8,28.3,8,25.6,8.9,23.1z"/>
</g>
</svg>
