<?xml version="1.0" encoding="utf-8"?>
<!-- Generator: Adobe Illustrator 26.0.0, SVG Export Plug-In . SVG Version: 6.00 Build 0)  -->
<svg version="1.1" id="Calque_1" xmlns="http://www.w3.org/2000/svg" xmlns:xlink="http://www.w3.org/1999/xlink" x="0px" y="0px"
	 viewBox="0 0 43 48" style="enable-background:new 0 0 43 48;" xml:space="preserve">
<style type="text/css">
	.st0{fill:#DAE2E8;}
</style>
<g>
	<path class="st0" d="M36,36.2l-19,7.8L3.9,11.8l19-7.8l3.9,9.5l1.5-1.8l-3.5-8.5c-1-2.3-3.6-3.4-6-2.5L4.5,6.6
		c-2.3,1-3.4,3.6-2.5,6l13.2,32.2c1,2.3,3.6,3.4,6,2.5l14.3-5.9c2.3-1,3.4-3.6,2.5-6l-2.6-6.3l-1.9,0.8L36,36.2z M13.1,7.3
		c-0.3,0.1-0.6,0-0.7-0.3c-0.1-0.3,0-0.6,0.3-0.7c0.3-0.1,0.6,0,0.7,0.3c0,0,0,0,0,0C13.5,6.8,13.4,7.1,13.1,7.3
		C13.1,7.3,13.1,7.3,13.1,7.3z M9.7,6.3c-0.1-0.1,0.1-0.4,0.4-0.5l4.2-1.7c0.3-0.1,0.6-0.1,0.6,0l0.1,0.1c0.1,0.1-0.1,0.4-0.4,0.5
		l-4.2,1.7c-0.3,0.1-0.6,0.1-0.6,0L9.7,6.3z M30.2,41.4c0.1,0.3,0,0.6-0.3,0.7l-4.2,1.7c-0.3,0.1-0.6,0-0.7-0.3l-0.1-0.3
		c-0.1-0.3,0-0.6,0.3-0.7l4.2-1.7c0.3-0.1,0.6,0,0.7,0.3L30.2,41.4z"/>
	<polygon class="st0" points="38.9,25 22.7,31.7 16.1,15.5 15,15.9 22.1,33.2 39.4,26.1 	"/>
	<polygon class="st0" points="25.2,18.8 30.1,18.1 30.5,14.9 32.3,15.2 30.6,10.8 27.7,14.5 29.4,14.7 29,17 24.4,17.7 21.7,24.1 
		22.8,24.6 	"/>
	<polygon class="st0" points="27.7,28.4 29.8,27.5 26.7,19.7 26,19.8 25.1,22 	"/>
	<polygon class="st0" points="22.9,25.9 24.5,29.7 26.6,28.8 24.4,23.6 23.4,26.1 	"/>
	<polygon class="st0" points="31.2,18.5 34.2,25.7 36.3,24.9 32.9,16.4 31.5,16.2 	"/>
	<polygon class="st0" points="33.1,26.2 30.2,19.2 27.8,19.6 30.9,27.1 	"/>
</g>
</svg>
