<svg xmlns="http://www.w3.org/2000/svg" viewBox="0 0 828.56 310.7"><defs><style>.cls-1{fill:gray;}.cls-2{fill:#5fabce;}</style></defs><g id="Calque_2" data-name="Calque 2"><g id="Calque_1-2" data-name="Calque 1"><path class="cls-1" d="M652.14,105.15c-.47,7.35,4,13.69,11.82,16.48,10.31,3.69,20.33,2.49,29.91-2.69,1.72-.93,3.37-2,5.43-3.25,3.6,5.8,7.16,11.22,10.3,16.86.51.92-.36,3.65-1.32,4.15-4.7,2.46-9.48,5-14.53,6.51a66.9,66.9,0,0,1-33.63,1.11c-23.71-5-37.35-23.41-36.32-48.51,1.29-31.7,27.88-51.77,58.25-44A40.34,40.34,0,0,1,712.73,89.9c.58,14.95.58,14.95-14.36,14.95q-20.25,0-40.5,0C655.94,104.87,654,105.05,652.14,105.15Zm36.09-20C687.1,75.09,680,69.31,669.91,69.64c-9.16.3-16.75,7-17.13,15.51Z"/><path class="cls-1" d="M752.19,105.13c-.71,6.64,2.86,12.48,9.73,15.64,9.68,4.46,19.44,3.77,29-.46,2.71-1.19,5.24-2.81,8.36-4.51l11.74,18.91c-6.69,5.2-13.87,8.69-21.59,9.44-9.68.94-19.77,1.66-29.23-.06-24.44-4.43-38.05-23.22-36.33-49.63,2.79-43,43.92-51.58,67.64-38.83C806,63.41,812.2,76.31,812.72,92.24c.42,12.6.28,12.61-12.25,12.61q-21.26,0-42.5,0C756,104.87,754.06,105,752.19,105.13Zm36.19-20C786.5,74.8,779.79,69.41,770,69.63c-9.08.21-16.4,6.51-17.51,15.46Z"/><path class="cls-1" d="M570.25,121h48.89c-2,7.82-3.62,14.85-5.57,21.8-.23.8-2.08,1.62-3.17,1.62q-42,.07-84-.07c-.29,0-.57-.27-1.78-.89L570,75.26H531.49c2-7.79,3.62-14.52,5.58-21.15.28-1,2.26-2,3.46-2,24.32-.1,48.64,0,73,0a10.61,10.61,0,0,1,2.28.79Z"/><path class="cls-2" d="M383.73,234.39c2.81,2,6,3.66,8.35,6.15,9.15,9.94,5.1,27.31-7.6,31.87a54.16,54.16,0,0,1-16.08,3c-11.31.44-22.65,0-34,.21-4,.07-5.57-1-5.54-5.27q.27-34.47,0-68.95c0-4.18,1.31-5.52,5.43-5.37,13.46.51,27-.21,40.36,1.32C389.83,199,397,213.23,390.35,226.1,388.79,229.1,386.08,231.5,383.73,234.39ZM356.55,267l0,.39c5.8-.42,11.65-.44,17.37-1.34,7.81-1.23,11.88-5.81,12-12.39.11-6.94-3.91-12.18-11.84-12.94-10.39-1-20.9-.86-31.36-.84-1.06,0-3,2.48-3.05,3.89-.33,6.31-.06,12.64-.18,19-.06,3.3,1.51,4.39,4.58,4.3C348.23,266.88,352.39,267,356.55,267Zm17.79-38c5.21-1.36,7.56-5.76,7.55-11.12s-2.77-9.19-7.72-11.14a24,24,0,0,0-7.72-1.84c-7.65-.28-15.31-.15-23-.23-2.69,0-4,1.12-4,3.86.05,6.33-.17,12.67.2,19,.07,1.26,2.16,3.28,3.49,3.43C347.32,231.31,368.31,230.5,374.34,228.93Z"/><path class="cls-2" d="M681,235.27c0-11.32.1-22.65-.06-34-.06-3.69.77-5.47,5-5.31,12.63.49,25.38-.28,37.89,1.14,20.52,2.31,33.65,18.13,33.65,38.67s-13.13,36.38-33.67,38.65c-13,1.44-26.25.75-39.39,1.06-3.58.08-3.39-2.35-3.39-4.75Zm10.54.16c0,8.65.09,17.31,0,26-.05,3.41,1.21,4.79,4.68,4.7,7-.18,14,.13,21-.16,16.35-.68,28.33-11.93,29.63-27.55,1.34-16-8.15-29-24.54-31.84-8.42-1.46-17.23-.66-25.85-1.07-3.75-.17-5,1.4-4.9,5C691.62,218.78,691.51,227.1,691.52,235.43Z"/><path class="cls-2" d="M497.58,249.31c0-8.47-.65-17,.12-25.41,2.11-22.91,20.41-30.92,39.11-28.46,18.22,2.4,28.11,13.91,28.54,32.66.33,14.31-.05,28.63.15,42.94.06,4.13-2,4.58-5.25,4.52-3.12-.05-5.63-.09-5.4-4.37.25-4.48,0-9,0-13.48.06-2.9-1.06-4.23-4.1-4.22q-19.47.12-38.95,0c-3.27,0-4.44,1.36-4.36,4.49.11,4.49-.16,9,.05,13.48s-2.77,4-5.64,4.09c-3.09.12-5.09-.39-5-4.25.22-7.32.06-14.65.06-22ZM531.06,244c6.48,0,13-.09,19.44,0,3.22.07,4.58-1.25,4.39-4.42-.34-5.79-.08-11.68-1-17.36-1.91-11.23-10.45-17.65-22.5-17.7s-20.74,6.23-22.74,17.42c-1.08,6-.76,12.22-1.06,18.34-.14,2.87,1.46,3.72,4.06,3.7C518.09,244,524.57,244,531.06,244Z"/><path class="cls-2" d="M461.64,249.43c5.94,8.55,11.67,16.79,17.76,25.53-7,1.21-12.1,1.09-15.62-5.39a103.31,103.31,0,0,0-10.65-15.06,9.74,9.74,0,0,0-6-3.44c-5.62-.47-11.31-.11-17-.17-3.33,0-4.81,1.37-4.71,4.81.16,5.32-.1,10.66.06,16,.12,4.2-2.66,3.79-5.37,3.83s-5.25.15-5.23-4c.11-23.79.07-47.59,0-71.39,0-2.53.55-4.19,3.56-4.11,12.13.33,24.32-.09,36.36,1,13,1.22,21.34,9.54,23.36,21.1,2.28,13-2.52,22.89-14.28,29.58C463.39,248.1,462.89,248.53,461.64,249.43Zm-22.15-44.37-.05.47c-3.32,0-6.65.06-10,0-2.69-.07-4,1.07-4,3.82.05,9.64-.09,19.28.15,28.91,0,1.27,1.84,3.58,2.81,3.57,8.78-.06,17.66.22,26.28-1.11s13.16-8.36,13.17-16.95-4.63-15.09-13.16-17C449.8,205.59,444.59,205.58,439.49,205.06Z"/><path class="cls-2" d="M600.79,206.14c10-10.12,20.91-12.5,33.1-10.37,12.6,2.19,20.47,10.1,22.52,22.73a78.93,78.93,0,0,1,1,11.9c.12,13.48-.07,27,.12,40.45,0,3.89-1.53,4.82-5,4.73-3.33-.09-5.72-.17-5.63-4.69.25-12.31.09-24.63.08-36.95,0-2.17,0-4.33-.08-6.49-.62-13.75-7.89-21.89-20.31-22.8-13.66-1-23,6.32-25.33,19.95a55.53,55.53,0,0,0-.65,8.94c-.07,12.48-.15,25,0,37.45.06,4.05-1.87,4.67-5.22,4.57-3.05-.08-5.46,0-5.44-4.31q.23-35.46,0-70.91c0-3.8,1.76-4.48,4.92-4.31,2.82.14,6-.52,5.62,4.05A50.18,50.18,0,0,0,600.79,206.14Z"/><path class="cls-2" d="M771.84,258.43c9.58,6.9,19.78,9.77,31,8.56a29.23,29.23,0,0,0,6.77-1.58c4.72-1.7,8-4.8,8.29-10.16.33-5.53-3-8.82-7.59-10.56-5.43-2-11.14-3.33-16.7-5.05-4-1.23-8-2.37-11.8-4-7.38-3.12-11.64-8.6-11.9-16.88-.29-8.86,3.23-15.75,11.21-19.57,13.88-6.65,27.81-5.24,41.38,1.22,1,.48,1.7,2.84,1.57,4.24-.15,1.71-1.32,3.33-2.29,5.55-1.81-.78-3.43-1.44-5-2.17-8.13-3.72-16.58-5-25.3-2.76-6.92,1.74-10.69,5.86-11,11.35-.24,5.16,2.55,8.79,9.51,11.32,4.67,1.7,9.61,2.67,14.38,4.11a116.44,116.44,0,0,1,12.75,4.3c6.53,2.86,10.72,7.76,11.32,15.19.68,8.36-2.26,15-9.28,19.72-11.87,7.92-38,6.5-48.9-2.79-1-.83-1.26-3.07-1-4.52C769.55,262.25,770.74,260.68,771.84,258.43Z"/><path class="cls-1" d="M396.63,52l-25,50.49L346.67,52c-8.45.17-16.9.06-26.3.06,1,2.32,1.51,3.8,2.23,5.18q21.54,41.73,43.13,83.42c1.25,2.41,2,5.19,5.83,5.2h.18c3.86,0,4.58-2.79,5.82-5.2q21.62-41.69,43.14-83.42c.71-1.38,1.23-2.86,2.22-5.18C413.52,52,405.07,52.12,396.63,52Z"/><path class="cls-1" d="M510.63,72.31c0-3.42-1.33-5.53-4-7.42C490.69,53.6,473,50,454,53.18a41.58,41.58,0,0,0-26.49,15.64c-13.41,16.82-13.61,47.47-.85,64.8,11.77,16,42.4,20.67,54.22,0,.27-.49.84-.81,2.19-2.06,0,4,.13,6.9,0,9.82-.19,3.38,1.07,4.84,4.6,4.73,6-.19,12-.25,18,0,4.11.19,5.07-1.61,5.05-5.32Q510.47,106.55,510.63,72.31Zm-32.77,39.36c-2.91,8.52-9.09,11.84-17.77,11.52a15,15,0,0,1-12.79-7.45c-6.16-9.87-5-26.49,1.85-36,7.36-10.2,23.59-8.66,30.88-4.09C481.15,76.39,480.51,103.93,477.86,111.67Z"/><path class="cls-1" d="M241.86,181.6l.36-1.79c.12-.48.24-1.08.36-1.55s.12-.72.24-1.08a114.37,114.37,0,0,0-2.39-53.57L226,151.41,80.07,74.33,94,47.49a113.79,113.79,0,0,0-72.42,139.6l14.08-27L181.37,237.2l-13.48,26a113.34,113.34,0,0,0,31.38-16.59h0A114,114,0,0,0,232.08,208a110.83,110.83,0,0,0,8.35-20.88h0c.48-1.56.84-3.11,1.2-4.78A1,1,0,0,0,241.86,181.6ZM49.05,134.23l17.54-33.89,145.92,77-17.66,33.89Z"/><path class="cls-1" d="M130.9,41.4a116.57,116.57,0,0,0-26,3L237.33,114.3A113.93,113.93,0,0,0,130.9,41.4Z"/><path class="cls-1" d="M130.9,269.41a120.48,120.48,0,0,0,24.7-2.62l-130.53-69A114.13,114.13,0,0,0,130.9,269.41Z"/><path class="cls-2" d="M130.42,10h0a9.47,9.47,0,0,1,4.3,1.08L246.88,69.32a9.2,9.2,0,0,1,3.93,12.41L139.61,295.66a9.18,9.18,0,0,1-8.23,5,9.49,9.49,0,0,1-4.3-1.07L14.93,241.37A9.15,9.15,0,0,1,11,229L122.07,15.15A9.52,9.52,0,0,1,130.42,10m0-10a19.2,19.2,0,0,0-17.06,10.38L2.16,224.31a19.34,19.34,0,0,0,8.23,26l112.16,58.23a19.35,19.35,0,0,0,26-8.23L259.64,86.5a19.34,19.34,0,0,0-8.23-26L139.25,2.27A18,18,0,0,0,130.42,0Z"/></g></g></svg>